<?xml version="1.0" encoding="UTF-8" standalone="no"?>
<!DOCTYPE svg PUBLIC "-//W3C//DTD SVG 1.1//EN"
 "http://www.w3.org/Graphics/SVG/1.1/DTD/svg11.dtd">
<!-- Generated by graphviz version 2.40.1 (20161225.0304)
 -->
<!-- Title: G Pages: 1 -->
<svg width="934pt" height="332pt"
 viewBox="0.00 0.00 934.38 332.00" xmlns="http://www.w3.org/2000/svg" xmlns:xlink="http://www.w3.org/1999/xlink">
<g id="graph0" class="graph" transform="scale(1 1) rotate(0) translate(4 328)">
<title>G</title>
<polygon fill="#ffffff" stroke="transparent" points="-4,4 -4,-328 930.3813,-328 930.3813,4 -4,4"/>
<!-- beego/utils -->
<g id="node1" class="node">
<title>beego/utils</title>
<ellipse fill="none" stroke="#000000" cx="570.702" cy="-234" rx="48.8273" ry="18"/>
<text text-anchor="middle" x="570.702" y="-229.8" font-family="Times,serif" font-size="14.00" fill="#000000">beego/utils</text>
</g>
<!-- beego/utils&#45;&gt;beego/utils -->
<g id="edge15" class="edge">
<title>beego/utils&#45;&gt;beego/utils</title>
<path fill="none" stroke="#000000" d="M604.7867,-247.0641C622.0954,-248.9719 637.6156,-244.6172 637.6156,-234 637.6156,-225.5394 627.7601,-221.0556 614.9977,-220.5485"/>
<polygon fill="#000000" stroke="#000000" points="614.6468,-217.0592 604.7867,-220.9359 614.9123,-224.0542 614.6468,-217.0592"/>
</g>
<!-- beego/session -->
<g id="node2" class="node">
<title>beego/session</title>
<ellipse fill="none" stroke="#000000" cx="554.702" cy="-162" rx="59.4599" ry="18"/>
<text text-anchor="middle" x="554.702" y="-157.8" font-family="Times,serif" font-size="14.00" fill="#000000">beego/session</text>
</g>
<!-- beego/utils&#45;&gt;beego/session -->
<g id="edge1" class="edge">
<title>beego/utils&#45;&gt;beego/session</title>
<path fill="none" stroke="#000000" d="M566.6645,-215.8314C564.9533,-208.131 562.9185,-198.9743 561.0168,-190.4166"/>
<polygon fill="#000000" stroke="#000000" points="564.3799,-189.4159 558.7938,-180.4133 557.5465,-190.9344 564.3799,-189.4159"/>
</g>
<!-- beego -->
<g id="node4" class="node">
<title>beego</title>
<ellipse fill="none" stroke="#000000" cx="356.702" cy="-18" rx="31.4462" ry="18"/>
<text text-anchor="middle" x="356.702" y="-13.8" font-family="Times,serif" font-size="14.00" fill="#000000">beego</text>
</g>
<!-- beego/utils&#45;&gt;beego -->
<g id="edge3" class="edge">
<title>beego/utils&#45;&gt;beego</title>
<path fill="none" stroke="#000000" d="M522.7389,-230.3392C428.6245,-222.6678 227.0967,-203.6435 206.702,-180 159.0336,-124.7383 265.247,-62.0656 322.8112,-33.5747"/>
<polygon fill="#000000" stroke="#000000" points="324.4721,-36.659 331.9377,-29.1414 321.4135,-30.3626 324.4721,-36.659"/>
</g>
<!-- beego/config -->
<g id="node8" class="node">
<title>beego/config</title>
<ellipse fill="none" stroke="#000000" cx="271.702" cy="-162" rx="55.5768" ry="18"/>
<text text-anchor="middle" x="271.702" y="-157.8" font-family="Times,serif" font-size="14.00" fill="#000000">beego/config</text>
</g>
<!-- beego/utils&#45;&gt;beego/config -->
<g id="edge22" class="edge">
<title>beego/utils&#45;&gt;beego/config</title>
<path fill="none" stroke="#000000" d="M529.7542,-224.1397C476.9882,-211.4335 385.0788,-189.3014 326.3798,-175.1666"/>
<polygon fill="#000000" stroke="#000000" points="327.0814,-171.7355 316.5398,-172.7971 325.4425,-178.541 327.0814,-171.7355"/>
</g>
<!-- beego/context -->
<g id="node9" class="node">
<title>beego/context</title>
<ellipse fill="none" stroke="#000000" cx="668.702" cy="-90" rx="59.9184" ry="18"/>
<text text-anchor="middle" x="668.702" y="-85.8" font-family="Times,serif" font-size="14.00" fill="#000000">beego/context</text>
</g>
<!-- beego/utils&#45;&gt;beego/context -->
<g id="edge18" class="edge">
<title>beego/utils&#45;&gt;beego/context</title>
<path fill="none" stroke="#000000" d="M591.6741,-217.5076C604.8801,-208.1448 621.0983,-195.2471 631.702,-180 644.6303,-161.4103 651.7632,-136.6218 657.0098,-117.7671"/>
<polygon fill="#000000" stroke="#000000" points="660.4243,-118.5535 659.7554,-107.9798 653.6844,-116.6627 660.4243,-118.5535"/>
</g>
<!-- beego/session&#45;&gt;beego/session -->
<g id="edge21" class="edge">
<title>beego/session&#45;&gt;beego/session</title>
<path fill="none" stroke="#000000" d="M595.2296,-175.1704C614.7233,-176.7964 631.9315,-172.4063 631.9315,-162 631.9315,-153.4636 620.3519,-148.9756 605.43,-148.5358"/>
<polygon fill="#000000" stroke="#000000" points="605.1247,-145.0431 595.2296,-148.8296 605.3263,-152.0402 605.1247,-145.0431"/>
</g>
<!-- beego/session&#45;&gt;beego -->
<g id="edge31" class="edge">
<title>beego/session&#45;&gt;beego</title>
<path fill="none" stroke="#000000" d="M523.4997,-146.479C504.63,-136.5172 480.479,-122.722 460.702,-108 442.0404,-94.1083 440.1608,-87.3761 422.702,-72 409.9737,-60.7901 395.42,-48.799 383.2237,-38.9708"/>
<polygon fill="#000000" stroke="#000000" points="385.2006,-36.0699 375.2081,-32.5484 380.8236,-41.5327 385.2006,-36.0699"/>
</g>
<!-- beego/session&#45;&gt;beego/context -->
<g id="edge24" class="edge">
<title>beego/session&#45;&gt;beego/context</title>
<path fill="none" stroke="#000000" d="M580.5703,-145.6621C596.4578,-135.6279 616.9998,-122.654 634.2546,-111.7562"/>
<polygon fill="#000000" stroke="#000000" points="636.3501,-114.5725 642.936,-106.2733 632.6121,-108.654 636.3501,-114.5725"/>
</g>
<!-- beego/logs -->
<g id="node3" class="node">
<title>beego/logs</title>
<ellipse fill="none" stroke="#000000" cx="660.702" cy="-306" rx="48.3427" ry="18"/>
<text text-anchor="middle" x="660.702" y="-301.8" font-family="Times,serif" font-size="14.00" fill="#000000">beego/logs</text>
</g>
<!-- beego/logs&#45;&gt;beego/utils -->
<g id="edge19" class="edge">
<title>beego/logs&#45;&gt;beego/utils</title>
<path fill="none" stroke="#000000" d="M640.2796,-289.6621C628.168,-279.9728 612.6299,-267.5424 599.3109,-256.8871"/>
<polygon fill="#000000" stroke="#000000" points="601.3502,-254.0364 591.3551,-250.5225 596.9774,-259.5025 601.3502,-254.0364"/>
</g>
<!-- beego/logs&#45;&gt;beego/logs -->
<g id="edge2" class="edge">
<title>beego/logs&#45;&gt;beego/logs</title>
<path fill="none" stroke="#000000" d="M694.1944,-319.0254C711.5126,-321.0293 727.1233,-316.6875 727.1233,-306 727.1233,-297.4834 717.2103,-292.9964 704.4198,-292.5389"/>
<polygon fill="#000000" stroke="#000000" points="704.0363,-289.052 694.1944,-292.9746 704.3343,-296.0457 704.0363,-289.052"/>
</g>
<!-- beego/logs&#45;&gt;beego -->
<g id="edge14" class="edge">
<title>beego/logs&#45;&gt;beego</title>
<path fill="none" stroke="#000000" d="M623.9885,-294.1125C617.2583,-292.017 610.2823,-289.9002 603.702,-288 421.8351,-235.4821 307.3467,-329.8666 191.702,-180 172.8778,-155.6053 205.9649,-79.2621 212.702,-72 239.5743,-43.0334 283.4975,-29.5114 315.779,-23.2574"/>
<polygon fill="#000000" stroke="#000000" points="316.5823,-26.6696 325.8146,-21.4719 315.3561,-19.7778 316.5823,-26.6696"/>
</g>
<!-- beego/logs&#45;&gt;beego/context -->
<g id="edge10" class="edge">
<title>beego/logs&#45;&gt;beego/context</title>
<path fill="none" stroke="#000000" d="M662.8065,-287.6699C665.5032,-263.1738 670.0294,-218.3904 671.702,-180 672.3984,-164.0152 672.1459,-159.9938 671.702,-144 671.4737,-135.7771 671.0504,-126.858 670.5922,-118.6823"/>
<polygon fill="#000000" stroke="#000000" points="674.0731,-118.2574 669.9832,-108.4838 667.0856,-118.6747 674.0731,-118.2574"/>
</g>
<!-- beego/migration -->
<g id="node11" class="node">
<title>beego/migration</title>
<ellipse fill="none" stroke="#000000" cx="794.702" cy="-234" rx="68.1287" ry="18"/>
<text text-anchor="middle" x="794.702" y="-229.8" font-family="Times,serif" font-size="14.00" fill="#000000">beego/migration</text>
</g>
<!-- beego/logs&#45;&gt;beego/migration -->
<g id="edge23" class="edge">
<title>beego/logs&#45;&gt;beego/migration</title>
<path fill="none" stroke="#000000" d="M688.4669,-291.0816C707.9191,-280.6296 734.184,-266.5171 755.7309,-254.9397"/>
<polygon fill="#000000" stroke="#000000" points="757.4905,-257.9675 764.6428,-250.1512 754.1772,-251.8013 757.4905,-257.9675"/>
</g>
<!-- beego/httplib -->
<g id="node5" class="node">
<title>beego/httplib</title>
<ellipse fill="none" stroke="#000000" cx="420.702" cy="-162" rx="56.5459" ry="18"/>
<text text-anchor="middle" x="420.702" y="-157.8" font-family="Times,serif" font-size="14.00" fill="#000000">beego/httplib</text>
</g>
<!-- beego/testing -->
<g id="node6" class="node">
<title>beego/testing</title>
<ellipse fill="none" stroke="#000000" cx="356.702" cy="-90" rx="57.0219" ry="18"/>
<text text-anchor="middle" x="356.702" y="-85.8" font-family="Times,serif" font-size="14.00" fill="#000000">beego/testing</text>
</g>
<!-- beego/httplib&#45;&gt;beego/testing -->
<g id="edge4" class="edge">
<title>beego/httplib&#45;&gt;beego/testing</title>
<path fill="none" stroke="#000000" d="M405.2094,-144.5708C397.3279,-135.7041 387.6067,-124.7678 378.9414,-115.0194"/>
<polygon fill="#000000" stroke="#000000" points="381.5334,-112.6671 372.2737,-107.5182 376.3015,-117.3176 381.5334,-112.6671"/>
</g>
<!-- beego/cache -->
<g id="node7" class="node">
<title>beego/cache</title>
<ellipse fill="none" stroke="#000000" cx="522.702" cy="-306" rx="53.604" ry="18"/>
<text text-anchor="middle" x="522.702" y="-301.8" font-family="Times,serif" font-size="14.00" fill="#000000">beego/cache</text>
</g>
<!-- beego/cache&#45;&gt;beego/utils -->
<g id="edge17" class="edge">
<title>beego/cache&#45;&gt;beego/utils</title>
<path fill="none" stroke="#000000" d="M534.5672,-288.2022C540.2055,-279.7448 547.0563,-269.4685 553.2706,-260.147"/>
<polygon fill="#000000" stroke="#000000" points="556.3384,-261.855 558.9733,-251.593 550.5141,-257.9721 556.3384,-261.855"/>
</g>
<!-- beego/cache&#45;&gt;beego/cache -->
<g id="edge5" class="edge">
<title>beego/cache&#45;&gt;beego/cache</title>
<path fill="none" stroke="#000000" d="M559.6454,-319.1012C578.0695,-320.9139 594.5036,-316.5469 594.5036,-306 594.5036,-297.4307 583.6546,-292.941 569.7039,-292.5309"/>
<polygon fill="#000000" stroke="#000000" points="569.5107,-289.0355 559.6454,-292.8988 569.7667,-296.0309 569.5107,-289.0355"/>
</g>
<!-- beego/config&#45;&gt;beego -->
<g id="edge6" class="edge">
<title>beego/config&#45;&gt;beego</title>
<path fill="none" stroke="#000000" d="M272.0461,-143.8015C273.1694,-124.6442 277.1728,-94.238 290.702,-72 299.3299,-57.8184 313.0609,-45.7005 325.7698,-36.5591"/>
<polygon fill="#000000" stroke="#000000" points="328.0429,-39.2452 334.3297,-30.7172 324.0969,-33.4634 328.0429,-39.2452"/>
</g>
<!-- beego/config&#45;&gt;beego/testing -->
<g id="edge13" class="edge">
<title>beego/config&#45;&gt;beego/testing</title>
<path fill="none" stroke="#000000" d="M291.8458,-144.937C302.9608,-135.522 316.9277,-123.6912 329.0509,-113.4221"/>
<polygon fill="#000000" stroke="#000000" points="331.3345,-116.0747 336.7028,-106.9405 326.8101,-110.7333 331.3345,-116.0747"/>
</g>
<!-- beego/config&#45;&gt;beego/config -->
<g id="edge11" class="edge">
<title>beego/config&#45;&gt;beego/config</title>
<path fill="none" stroke="#000000" d="M310.0458,-175.1366C328.8257,-176.8554 345.49,-172.4766 345.49,-162 345.49,-153.4878 334.4889,-149.001 320.2904,-148.5397"/>
<polygon fill="#000000" stroke="#000000" points="319.9302,-145.0492 310.0458,-148.8634 320.1514,-152.0457 319.9302,-145.0492"/>
</g>
<!-- beego/context&#45;&gt;beego/utils -->
<g id="edge16" class="edge">
<title>beego/context&#45;&gt;beego/utils</title>
<path fill="none" stroke="#000000" d="M673.023,-107.9798C672.2062,-127.2283 665.0244,-157.9678 649.702,-180 639.9773,-193.9831 625.5306,-205.9901 611.5497,-215.1068"/>
<polygon fill="#000000" stroke="#000000" points="609.6311,-212.1778 602.9512,-220.4016 613.3015,-218.1384 609.6311,-212.1778"/>
</g>
<!-- beego/context&#45;&gt;beego -->
<g id="edge7" class="edge">
<title>beego/context&#45;&gt;beego</title>
<path fill="none" stroke="#000000" d="M620.9763,-78.9864C559.2667,-64.7457 452.9536,-40.2119 395.785,-27.0192"/>
<polygon fill="#000000" stroke="#000000" points="396.2351,-23.5311 385.7041,-24.6928 394.661,-30.3518 396.2351,-23.5311"/>
</g>
<!-- beego/context&#45;&gt;beego/context -->
<g id="edge25" class="edge">
<title>beego/context&#45;&gt;beego/context</title>
<path fill="none" stroke="#000000" d="M709.4811,-103.1704C729.0958,-104.7964 746.4108,-100.4063 746.4108,-90 746.4108,-81.4636 734.7593,-76.9756 719.7448,-76.5358"/>
<polygon fill="#000000" stroke="#000000" points="719.3769,-73.0448 709.4811,-76.8296 719.5772,-80.042 719.3769,-73.0448"/>
</g>
<!-- beego/plugins -->
<g id="node12" class="node">
<title>beego/plugins</title>
<ellipse fill="none" stroke="#000000" cx="798.702" cy="-18" rx="59.9444" ry="18"/>
<text text-anchor="middle" x="798.702" y="-13.8" font-family="Times,serif" font-size="14.00" fill="#000000">beego/plugins</text>
</g>
<!-- beego/context&#45;&gt;beego/plugins -->
<g id="edge9" class="edge">
<title>beego/context&#45;&gt;beego/plugins</title>
<path fill="none" stroke="#000000" d="M697.5532,-74.0209C716.2352,-63.6739 740.7589,-50.0916 760.9799,-38.8922"/>
<polygon fill="#000000" stroke="#000000" points="762.8793,-41.8413 769.9314,-33.9345 759.4877,-35.7177 762.8793,-41.8413"/>
</g>
<!-- beego/ -->
<g id="node10" class="node">
<title>beego/</title>
<ellipse fill="none" stroke="#000000" cx="892.702" cy="-306" rx="33.8596" ry="18"/>
<text text-anchor="middle" x="892.702" y="-301.8" font-family="Times,serif" font-size="14.00" fill="#000000">beego/</text>
</g>
<!-- beego/&#45;&gt;beego/utils -->
<g id="edge20" class="edge">
<title>beego/&#45;&gt;beego/utils</title>
<path fill="none" stroke="#000000" d="M867.0953,-294.2724C861.4453,-291.9701 855.4341,-289.7344 849.702,-288 774.3503,-265.2009 684.537,-249.8437 627.566,-241.509"/>
<polygon fill="#000000" stroke="#000000" points="627.718,-237.9949 617.3213,-240.0343 626.7205,-244.9235 627.718,-237.9949"/>
</g>
<!-- beego/&#45;&gt;beego -->
<g id="edge29" class="edge">
<title>beego/&#45;&gt;beego</title>
<path fill="none" stroke="#000000" d="M890.8949,-287.9579C888.4773,-269.1979 883.0937,-239.3631 871.702,-216 835.6836,-142.1308 827.2815,-112.3775 755.702,-72 695.0873,-37.8077 487.3818,-24.1364 398.0693,-19.7491"/>
<polygon fill="#000000" stroke="#000000" points="398.1892,-16.2509 388.0339,-19.2709 397.856,-23.243 398.1892,-16.2509"/>
</g>
<!-- beego/&#45;&gt;beego/migration -->
<g id="edge8" class="edge">
<title>beego/&#45;&gt;beego/migration</title>
<path fill="none" stroke="#000000" d="M872.8702,-291.4297C859.4681,-281.5833 841.4889,-268.374 826.1524,-257.1064"/>
<polygon fill="#000000" stroke="#000000" points="828.081,-254.1803 817.9499,-251.0801 823.9365,-259.8215 828.081,-254.1803"/>
</g>
<!-- beego/&#45;&gt;beego/plugins -->
<g id="edge28" class="edge">
<title>beego/&#45;&gt;beego/plugins</title>
<path fill="none" stroke="#000000" d="M899.9255,-288.2016C915.5038,-246.7291 947.5321,-141.8868 904.702,-72 893.4801,-53.6891 873.8858,-41.3441 854.572,-33.1396"/>
<polygon fill="#000000" stroke="#000000" points="855.7385,-29.8374 845.1512,-29.4365 853.1776,-36.3522 855.7385,-29.8374"/>
</g>
<!-- beego/plugins&#45;&gt;beego/plugins -->
<g id="edge27" class="edge">
<title>beego/plugins&#45;&gt;beego/plugins</title>
<path fill="none" stroke="#000000" d="M839.4879,-31.1704C859.1059,-32.7964 876.4238,-28.4063 876.4238,-18 876.4238,-9.4636 864.7703,-4.9756 849.7533,-4.5358"/>
<polygon fill="#000000" stroke="#000000" points="849.3837,-1.0449 839.4879,-4.8296 849.584,-8.042 849.3837,-1.0449"/>
</g>
<!-- beego/orm -->
<g id="node13" class="node">
<title>beego/orm</title>
<ellipse fill="none" stroke="#000000" cx="792.702" cy="-306" rx="47.8496" ry="18"/>
<text text-anchor="middle" x="792.702" y="-301.8" font-family="Times,serif" font-size="14.00" fill="#000000">beego/orm</text>
</g>
<!-- beego/orm&#45;&gt;beego/migration -->
<g id="edge12" class="edge">
<title>beego/orm&#45;&gt;beego/migration</title>
<path fill="none" stroke="#000000" d="M793.2067,-287.8314C793.4206,-280.131 793.6749,-270.9743 793.9126,-262.4166"/>
<polygon fill="#000000" stroke="#000000" points="797.4114,-262.5066 794.1905,-252.4133 790.4141,-262.3122 797.4114,-262.5066"/>
</g>
<!-- beego/grace -->
<g id="node14" class="node">
<title>beego/grace</title>
<ellipse fill="none" stroke="#000000" cx="522.702" cy="-90" rx="52.6435" ry="18"/>
<text text-anchor="middle" x="522.702" y="-85.8" font-family="Times,serif" font-size="14.00" fill="#000000">beego/grace</text>
</g>
<!-- beego/grace&#45;&gt;beego -->
<g id="edge26" class="edge">
<title>beego/grace&#45;&gt;beego</title>
<path fill="none" stroke="#000000" d="M489.9057,-75.7751C461.3824,-63.4035 420.1884,-45.5363 391.1805,-32.9546"/>
<polygon fill="#000000" stroke="#000000" points="392.4131,-29.6742 381.8462,-28.9059 389.6277,-36.0961 392.4131,-29.6742"/>
</g>
<!-- beego/toolbox -->
<g id="node15" class="node">
<title>beego/toolbox</title>
<ellipse fill="none" stroke="#000000" cx="60.702" cy="-90" rx="60.9046" ry="18"/>
<text text-anchor="middle" x="60.702" y="-85.8" font-family="Times,serif" font-size="14.00" fill="#000000">beego/toolbox</text>
</g>
<!-- beego/toolbox&#45;&gt;beego -->
<g id="edge30" class="edge">
<title>beego/toolbox&#45;&gt;beego</title>
<path fill="none" stroke="#000000" d="M107.9314,-78.5118C166.0464,-64.3757 263.6394,-40.6368 317.6986,-27.4873"/>
<polygon fill="#000000" stroke="#000000" points="318.6967,-30.8467 327.5861,-25.0822 317.0421,-24.045 318.6967,-30.8467"/>
</g>
</g>
</svg>
